<?xml version="1.0" encoding="utf-8"?>
<!-- Generator: Adobe Illustrator 24.3.0, SVG Export Plug-In . SVG Version: 6.00 Build 0)  -->
<svg version="1.1" id="Layer_1" xmlns="http://www.w3.org/2000/svg" xmlns:xlink="http://www.w3.org/1999/xlink" x="0px" y="0px"
	 viewBox="0 0 346.7 348.5" style="enable-background:new 0 0 346.7 348.5;" xml:space="preserve">
<style type="text/css">
	.st0{fill:#492E85;}
	.st1{fill:#5C66AF;}
	.st2{fill:#E8B825;}
	.st3{fill:#EA222B;}
	.st4{fill:#5CC099;}
</style>
<g>
	<path class="st0" d="M144.8,189.1h54.9c54.9,0,102.6-32.3,125.2-79.2c-4.8-11.3-10.5-21.8-17.8-31.5
		c-12.1,47.7-55.7,83.2-106.6,83.2h-54.9c-51.7,0-98.5,20.2-133.3,53.3c2.4,9.7,5.7,20.2,10.5,29.1
		C51.9,210.1,95.5,189.1,144.8,189.1L144.8,189.1z"/>
	<path class="st1" d="M335.4,146.3c-29.9,42.8-79.2,70.3-135.7,70.3h-54.9c-44.4,0-83.2,21-109,53.3c5.7,8.1,11.3,15.3,17.8,21.8
		c20.2-28.3,53.3-46.8,90.5-46.8h54.9c54.1,0,102.6-21.8,137.3-57.3c0-4,0.8-7.3,0.8-11.3C338.6,165.7,337,156,335.4,146.3
		L335.4,146.3z"/>
	<path class="st2" d="M144.8,106c-50.1,0-96.9,15.3-135.7,40.4c-1.6,9.7-2.4,19.4-2.4,29.1c0,2.4,0,4.8,0,7.3
		c38-30.7,85.6-48.5,138.1-48.5h54.9c45.2,0,82.4-36.3,83.2-81.6c-8.1-7.3-17.8-14.5-27.5-20.2V51c0,30.7-25,54.9-54.9,54.9H144.8z"
		/>
	<path class="st3" d="M144.8,78.5h54.9c15.3,0,27.5-12.1,27.5-27.5V18.7c-17-6.5-35.5-9.7-54.9-9.7c-67.8,0-126,40.4-151.8,98.5
		C58.4,89,100.4,78.5,144.8,78.5L144.8,78.5z"/>
	<path class="st4" d="M200.5,272.3h-55.7c-29.1,0-54.9,15.3-69.5,38c27.5,19.4,60.6,31.5,96.9,31.5c71.9,0,133.3-46,156.7-110.7
		C292.6,256.2,248.2,272.3,200.5,272.3z"/>
</g>
</svg>
